ModelForces
version=1
nRows=4
nColumns=157
inDegrees=no

This file contains the forces exerted on a model during a simulation.

A force is a generalized force, meaning that it can be either a force (N) or a torque (Nm).

Units are S.I. units (second, meters, Newtons, ...)
Angles are in degrees.

endheader
time	glut_med1_r	glut_med2_r	glut_med3_r	glut_min1_r	glut_min2_r	glut_min3_r	semimem_r	semiten_r	bifemlh_r	bifemsh_r	sar_r	add_long_r	add_brev_r	add_mag1_r	add_mag2_r	add_mag3_r	tfl_r	pect_r	grac_r	glut_max1_r	glut_max2_r	glut_max3_r	iliacus_r	psoas_r	quad_fem_r	gem_r	peri_r	rect_fem_r	vas_med_r	vas_int_r	vas_lat_r	med_gas_r	lat_gas_r	soleus_r	tib_post_r	flex_dig_r	flex_hal_r	tib_ant_r	per_brev_r	per_long_r	per_tert_r	ext_dig_r	ext_hal_r	glut_med1_l	glut_med2_l	glut_med3_l	glut_min1_l	glut_min2_l	glut_min3_l	semimem_l	semiten_l	bifemlh_l	bifemsh_l	sar_l	add_long_l	add_brev_l	add_mag1_l	add_mag2_l	add_mag3_l	tfl_l	pect_l	grac_l	glut_max1_l	glut_max2_l	glut_max3_l	iliacus_l	psoas_l	quad_fem_l	gem_l	peri_l	rect_fem_l	vas_med_l	vas_int_l	vas_lat_l	med_gas_l	lat_gas_l	soleus_l	tib_post_l	flex_dig_l	flex_hal_l	tib_ant_l	per_brev_l	per_long_l	per_tert_l	ext_dig_l	ext_hal_l	ercspn_r	ercspn_l	intobl_r	intobl_l	extobl_r	extobl_l	femur_lat_meniscii_r.femur_lat_r.force.X	femur_lat_meniscii_r.femur_lat_r.force.Y	femur_lat_meniscii_r.femur_lat_r.force.Z	femur_lat_meniscii_r.femur_lat_r.torque.X	femur_lat_meniscii_r.femur_lat_r.torque.Y	femur_lat_meniscii_r.femur_lat_r.torque.Z	femur_lat_meniscii_r.meniscus_lat_r.force.X	femur_lat_meniscii_r.meniscus_lat_r.force.Y	femur_lat_meniscii_r.meniscus_lat_r.force.Z	femur_lat_meniscii_r.meniscus_lat_r.torque.X	femur_lat_meniscii_r.meniscus_lat_r.torque.Y	femur_lat_meniscii_r.meniscus_lat_r.torque.Z	femur_med_meniscii_r.femur_med_r.force.X	femur_med_meniscii_r.femur_med_r.force.Y	femur_med_meniscii_r.femur_med_r.force.Z	femur_med_meniscii_r.femur_med_r.torque.X	femur_med_meniscii_r.femur_med_r.torque.Y	femur_med_meniscii_r.femur_med_r.torque.Z	femur_med_meniscii_r.meniscus_med_r.force.X	femur_med_meniscii_r.meniscus_med_r.force.Y	femur_med_meniscii_r.meniscus_med_r.force.Z	femur_med_meniscii_r.meniscus_med_r.torque.X	femur_med_meniscii_r.meniscus_med_r.torque.Y	femur_med_meniscii_r.meniscus_med_r.torque.Z	femur_med_tibia_r.tibia_upper_r.force.X	femur_med_tibia_r.tibia_upper_r.force.Y	femur_med_tibia_r.tibia_upper_r.force.Z	femur_med_tibia_r.tibia_upper_r.torque.X	femur_med_tibia_r.tibia_upper_r.torque.Y	femur_med_tibia_r.tibia_upper_r.torque.Z	femur_med_tibia_r.femur_med_r.force.X	femur_med_tibia_r.femur_med_r.force.Y	femur_med_tibia_r.femur_med_r.force.Z	femur_med_tibia_r.femur_med_r.torque.X	femur_med_tibia_r.femur_med_r.torque.Y	femur_med_tibia_r.femur_med_r.torque.Z	femur_lat_tibia_r.tibia_upper_r.force.X	femur_lat_tibia_r.tibia_upper_r.force.Y	femur_lat_tibia_r.tibia_upper_r.force.Z	femur_lat_tibia_r.tibia_upper_r.torque.X	femur_lat_tibia_r.tibia_upper_r.torque.Y	femur_lat_tibia_r.tibia_upper_r.torque.Z	femur_lat_tibia_r.femur_lat_r.force.X	femur_lat_tibia_r.femur_lat_r.force.Y	femur_lat_tibia_r.femur_lat_r.force.Z	femur_lat_tibia_r.femur_lat_r.torque.X	femur_lat_tibia_r.femur_lat_r.torque.Y	femur_lat_tibia_r.femur_lat_r.torque.Z	aACL_R	pACL_R	aPCL_R	pPCL_R	aMCL_R	mMCL_R	pMCL_R	aLCL_R	mLCL_R	pLCL_R	ground_prescribedForce_fx	ground_prescribedForce_fy	ground_prescribedForce_fz	ground_prescribedForce_px	ground_prescribedForce_py	ground_prescribedForce_pz
      0.14582915	     12.58128867	      9.09803192	      9.79536724	      4.18602389	      4.84346074	      5.31576403	     11.57855558	      6.79276187	     13.71076775	     11.64120958	      2.40441646	      9.06373304	      6.49205031	      4.67484897	      3.97383178	      6.74068970	      6.70311675	      3.53545261	      2.47018610	      5.87675055	      8.94168288	      6.72830037	     28.93659041	     20.11394948	      5.76654925	      3.88551041	      7.63702512	     21.18400585	     13.58662220	     14.77678294	     19.71392250	      3.84519376	      1.83625744	      8.59580000	      3.11824444	      2.49132307	      5.40880932	     20.58590234	     11.84981653	     25.70382354	      6.96298357	     11.43248087	      1.42657978	     12.58128867	      9.09803192	      9.79536724	      4.18602389	      4.84346074	      5.31576403	     15.74627057	      6.77769979	     13.61574450	     11.47874335	      2.38752685	      9.06373304	      6.49205031	      4.67484897	      3.97383178	      6.74068970	      5.80386888	      3.53545261	      2.46825048	      5.87675055	      8.94168288	      6.72830037	     28.93659041	     20.11394948	      5.76654925	      3.88551041	      7.63702512	     18.78676896	     10.72427702	     12.40717376	     13.32536977	     27.23140161	     12.65761447	     58.11772706	     53.72139294	      5.67135563	      5.66247019	     14.63920208	      7.86761097	     20.09477423	      3.10896923	      9.87499008	      3.09600581	     39.40901166	     39.40901166	     14.73900560	     14.73900560	     31.98718376	     31.98718376	      0.00000000	      0.00000000	      0.00000000	      0.00000000	      0.00000000	      0.00000000	      0.00000000	      0.00000000	      0.00000000	      0.00000000	      0.00000000	      0.00000000	     76.01044987	    184.57515018	     40.47862402	    -12.53036293	     -2.09889118	     32.79473998	    -76.01044987	   -184.57515018	    -40.47862402	     -2.55027249	      1.72952975	     -2.79221756	     -6.45490722	    -21.15311349	      4.73284576	     -0.48500914	      0.08688479	     -0.27180663	      6.45490722	     21.15311349	     -4.73284576	      2.35618164	     -0.08244077	      2.84367364	      0.00000000	      0.00000000	      0.00000000	      0.00000000	      0.00000000	      0.00000000	      0.00000000	      0.00000000	      0.00000000	      0.00000000	      0.00000000	      0.00000000	     48.82427955	     58.28480818	      0.00000000	      0.00000000	      0.00000000	      0.00000000	      0.00000000	     11.78418295	      0.00000000	      3.11343088	    106.25000000	    -28.47000000	      0.00000000	      0.03000000	     -0.03000000	      0.00000000
      0.14860534	     12.39856383	      8.97402336	      9.66030529	      4.13124137	      4.78338671	      5.23871996	     11.45965324	      6.71668867	     13.34107383	     11.28897018	      2.38157725	      8.93881402	      6.40787552	      4.61136280	      3.91865576	      6.64078803	      6.57914842	      3.48885116	      2.44963037	      5.79625779	      8.81896461	      6.63462349	     28.70720412	     19.85230098	      5.68947041	      3.84758543	      7.51540146	     20.74400629	     13.45233011	     14.46945129	     19.19582999	      3.89432182	      1.81856920	      8.83578449	      3.36914894	      2.21894906	      5.17019415	     20.33789717	     11.67717824	     25.33941521	      9.01520345	     11.98948758	      1.53115379	     12.39856383	      8.97402336	      9.66030529	      4.13124137	      4.78338671	      5.23871996	     15.49974210	      6.67988588	     13.40460829	     11.32512112	      2.35642591	      8.93881402	      6.40787552	      4.61136280	      3.91865576	      6.64078803	      5.74183928	      3.48885116	      2.43554083	      5.79625779	      8.81896461	      6.63462349	     28.70720412	     19.85230098	      5.68947041	      3.84758543	      7.51540146	     18.49684714	     10.57366321	     12.23036395	     13.13538451	     26.79521036	     12.45435144	     57.18924035	     53.31490025	      5.56871009	      5.56425280	     14.41658706	      7.74324815	     19.83014233	      3.06867776	      9.71860905	      3.04718863	     38.89213052	     38.89213052	     14.53083745	     14.53083745	     31.79775022	     31.79775022	      0.00000000	      0.00000000	      0.00000000	      0.00000000	      0.00000000	      0.00000000	      0.00000000	      0.00000000	      0.00000000	      0.00000000	      0.00000000	      0.00000000	     75.43115245	    181.03821850	     40.66807872	    -12.68537711	     -2.08306498	     32.51658864	    -75.43115245	   -181.03821850	    -40.66807872	     -2.47915595	      1.71507255	     -2.75125577	     -5.91000122	    -19.25210213	      4.37987114	     -0.44430824	      0.07973773	     -0.24829320	      5.91000122	     19.25210213	     -4.37987114	      2.17491929	     -0.07538829	      2.60262028	      0.00000000	      0.00000000	      0.00000000	      0.00000000	      0.00000000	      0.00000000	      0.00000000	      0.00000000	      0.00000000	      0.00000000	      0.00000000	      0.00000000	     48.54053961	     57.83168984	      0.00000000	      0.00000000	      0.00000000	      0.00000000	      0.00000000	     10.56640728	      0.00000000	      1.87687069	    106.25000000	    -28.47000000	      0.00000000	      0.03000000	     -0.03000000	      0.00000000
      0.14991901	     12.31447194	      8.91694811	      9.59814745	      4.10601988	      4.75573694	      5.20326332	     11.40223642	      6.68065621	     13.16946819	     11.12684280	      2.37049369	      8.88132409	      6.36911340	      4.58214448	      3.89326569	      6.59480888	      6.52117437	      3.46739822	      2.43956431	      5.75921672	      8.76249178	      6.59151622	     28.60167824	     19.73193213	      5.65399059	      3.83014285	      7.45933337	     20.54062165	     13.38657947	     14.32685510	     18.95494451	      3.92228285	      1.81549034	      8.96328409	      3.51011442	      2.09677876	      5.05329452	     20.22354715	     11.58484547	     25.15248742	      7.41146797	     12.17664273	      1.59186967	     12.31447194	      8.91694811	      9.59814745	      4.10601988	      4.75573694	      5.20326332	     15.38615031	      6.63487186	     13.30736317	     11.25440973	      2.34210623	      8.88132409	      6.36911340	      4.58214448	      3.89326569	      6.59480888	      5.71329381	      3.46739822	      2.42048338	      5.75921672	      8.76249178	      6.59151622	     28.60167824	     19.73193213	      5.65399059	      3.83014285	      7.45933337	     18.36333174	     10.50436964	     12.14901836	     13.04798823	     26.59396609	     12.36057956	     56.76122896	     53.12780674	      5.52137404	      5.51899867	     14.31409537	      7.68595625	     19.70825269	      3.05014125	      9.64648742	      3.02467809	     38.65416769	     38.65416769	     14.43503897	     14.43503897	     31.71061590	     31.71061590	      0.00000000	      0.00000000	      0.00000000	      0.00000000	      0.00000000	      0.00000000	      0.00000000	      0.00000000	      0.00000000	      0.00000000	      0.00000000	      0.00000000	     75.10705630	    179.57628801	     40.42964937	    -12.61366856	     -2.07384091	     32.36428141	    -75.10705630	   -179.57628801	    -40.42964937	     -2.46388580	      1.70800638	     -2.72944781	     -5.66553086	    -18.44260906	      4.19825997	     -0.42558754	      0.07644160	     -0.23781611	      5.66553086	     18.44260906	     -4.19825997	      2.08433114	     -0.07224127	      2.49473402	      0.00000000	      0.00000000	      0.00000000	      0.00000000	      0.00000000	      0.00000000	      0.00000000	      0.00000000	      0.00000000	      0.00000000	      0.00000000	      0.00000000	     48.41322069	     57.61529786	      0.00000000	      0.00000000	      0.00000000	      0.00000000	      0.00000000	     10.02724972	      0.00000000	      1.33361192	    106.25000000	    -28.47000000	      0.00000000	      0.03000000	     -0.03000000	      0.00000000
      0.15260403	     12.14718944	      8.80339866	      9.47449552	      4.05582979	      4.70072750	      5.13272973	     11.28382092	      6.60758559	     12.82373598	     10.80135177	      2.34839032	      8.76695812	      6.29198073	      4.52401806	      3.84276218	      6.50333725	      6.40406384	      3.42471010	      2.41894711	      5.68553591	      8.65015714	      6.50577059	     28.39183180	     19.49256947	      5.58339687	      3.79546533	      7.34761315	     20.13423709	     13.25238468	     14.04371370	     18.47390716	      3.98305562	      1.81533572	      9.23129353	      3.83204713	      1.85963126	      4.80320207	     19.99721752	     11.38038261	     24.74584276	      9.12956856	     12.38093921	      1.74164753	     12.14718944	      8.80339866	      9.47449552	      4.05582979	      4.70072750	      5.13272973	     15.15992256	      6.54532802	     13.11376584	     11.11371954	      2.31361005	      8.76695812	      6.29198073	      4.52401806	      3.84276218	      6.50333725	      5.65651115	      3.42471010	      2.39052194	      5.68553591	      8.65015714	      6.50577059	     28.39183180	     19.49256947	      5.58339687	      3.79546533	      7.34761315	     18.09755901	     10.36656349	     11.98724466	     12.87420219	     26.19265413	     12.17359725	     55.90841636	     52.75557874	      5.42702650	      5.42887724	     14.11013056	      7.57187295	     19.46557284	      3.01327834	      9.50270637	      2.97980747	     38.18063303	     38.18063303	     14.24447324	     14.24447324	     31.53736467	     31.53736467	      0.00000000	      0.00000000	      0.00000000	      0.00000000	      0.00000000	      0.00000000	      0.00000000	      0.00000000	      0.00000000	      0.00000000	      0.00000000	      0.00000000	     74.74802698	    176.17921557	     40.15174834	    -12.56993998	     -2.06136142	     32.17932862	    -74.74802698	   -176.17921557	    -40.15174834	     -2.41094555	      1.69811341	     -2.69646836	     -5.20302687	    -16.88012276	      3.88267604	     -0.39082098	      0.07018005	     -0.21804998	      5.20302687	     16.88012276	     -3.88267604	      1.92430862	     -0.06614785	      2.29054878	      0.00000000	      0.00000000	      0.00000000	      0.00000000	      0.00000000	      0.00000000	      0.00000000	      0.00000000	      0.00000000	      0.00000000	      0.00000000	      0.00000000	     48.11985274	     57.12522541	      0.00000000	      0.00000000	      0.00000000	      0.00000000	      0.00000000	      8.79853047	      0.00000000	      0.10464825	    106.25000000	    -28.47000000	      0.00000000	      0.03000000	     -0.03000000	      0.00000000
